<?xml version="1.0" encoding="UTF-8"?>
<svg width="100px" height="39.9px" viewBox="0 0 391 156" version="1.1" xmlns="http://www.w3.org/2000/svg" xmlns:xlink="http://www.w3.org/1999/xlink">
    <!-- Generator: Sketch 52.4 (67378) - http://www.bohemiancoding.com/sketch -->
    <title>moss-logo-primary</title>
    <desc>Created with Sketch.</desc>
    <g id="Page-1" stroke="none" stroke-width="1" fill="none" fill-rule="evenodd">
        <g id="moss-logo-primary" fill="#000000">
            <path d="M182.368,155.054 C167.753,155.054 155.34,148.055 145.125,134.057 C134.91,120.059 129.802,101.721 129.802,79.035 C129.802,66.259 131.505,54.7 134.91,44.363 C138.315,34.026 142.747,25.735 148.211,19.49 C153.671,13.245 159.597,8.436 165.981,5.061 C172.365,1.689 178.75,0 185.135,0 C198.755,0 210.6,6.928 220.675,20.781 C230.747,34.638 235.785,53.266 235.785,76.665 C235.785,100.929 230.498,120.058 219.93,134.056 C209.359,148.055 196.84,155.054 182.368,155.054 Z M183.881,152.9 C193.882,152.9 201.672,146.369 207.253,133.303 C212.831,120.24 215.624,101.646 215.624,77.527 C215.624,55.13 213.015,37.007 207.797,23.15 C202.579,9.297 194.46,2.369 183.446,2.369 C173.01,2.369 164.819,8.867 158.877,21.858 C152.932,34.853 149.963,52.69 149.963,75.373 C149.963,98.345 152.932,117.01 158.877,131.365 C164.819,145.723 173.152,152.9 183.881,152.9 Z" id="Shape" fill-rule="nonzero"></path>
            <path d="M124.651,150.854 C123.715,150.639 122.783,149.851 121.851,148.485 C120.916,147.122 120.377,145.147 120.236,142.563 L109.253,8.614 C109.108,7.181 109.431,6.104 110.222,5.384 C111.009,4.667 111.8,4.237 112.591,4.092 C113.378,3.951 114.492,3.877 115.929,3.877 L115.929,2.154 L91.017,2.154 L76.867,68.453 L67.22,113.65 L36.591,2.154 L9.614,2.154 L9.614,3.877 C13.06,3.877 15.463,4.631 16.828,6.138 C18.191,7.646 19.661,11.199 21.243,16.798 L23.181,23.259 L13.275,142.564 C13.13,145.293 12.555,147.268 11.552,148.486 C10.546,149.707 9.361,150.461 7.998,150.747 C6.632,151.036 4.3,151.178 0.999,151.178 L0.999,152.901 C5.448,152.901 8.57,152.793 10.367,152.578 C12.16,152.363 13.489,152.255 14.351,152.255 C15.354,152.255 16.646,152.363 18.227,152.578 C19.805,152.793 23.036,152.901 27.918,152.901 L27.918,151.178 C24.183,151.178 21.276,150.784 19.196,149.994 C17.113,149.207 16.144,147.376 16.289,144.503 L25.55,32.089 L60.222,152.9 L62.807,152.9 L92.094,15.29 L102.431,144.501 C102.572,146.513 102.108,148.021 101.031,149.023 C99.954,150.029 98.77,150.638 97.478,150.853 C96.186,151.068 94.174,151.176 91.448,151.176 L91.448,152.899 C95.896,152.899 99.954,152.791 103.616,152.576 C107.277,152.361 109.538,152.253 110.4,152.253 C111.402,152.253 112.986,152.361 116.576,152.576 C120.163,152.791 124.329,152.899 129.066,152.899 L129.066,151.176 C127.053,151.177 125.583,151.07 124.651,150.854 Z" id="Path"></path>
            <path d="M303.934,86.438 C299.728,80.549 276.335,58.783 276.335,58.783 C270.743,53.712 266.592,48.769 263.615,44.052 C261.771,41.462 260.454,38.98 259.681,36.609 C259.555,36.223 259.438,35.829 259.327,35.431 C253.084,18.193 262.594,5.469 272.532,3.454 L272.53,3.476 C274.266,3.037 276.114,2.799 278.094,2.799 C282.831,2.799 287.031,4.091 290.692,6.675 C294.353,9.259 297.26,12.705 299.414,17.012 C301.568,21.319 303.254,25.7 304.475,30.148 C305.693,34.6 306.591,39.338 307.167,44.361 L308.459,44.361 L308.459,6.461 C302.859,2.154 294.531,0 283.478,0 C272.565,0 263.558,3.16 256.451,9.475 C249.344,15.794 245.791,24.91 245.791,36.825 C245.791,43.144 247.009,48.992 249.452,54.376 C251.891,59.76 254.583,64.067 257.527,67.297 C260.468,70.527 264.957,75.016 270.986,80.757 C282.901,91.955 290.977,100.536 295.214,106.491 C299.447,112.45 301.567,119.305 301.567,127.057 C301.567,134.668 299.699,140.806 295.968,145.47 C292.233,150.137 287.425,152.469 281.539,152.469 C276.657,152.469 272.134,150.746 267.972,147.301 C263.806,143.855 260.468,139.515 257.958,134.272 C255.444,129.033 253.398,123.865 251.82,118.767 C250.239,113.673 249.162,108.827 248.59,104.231 L247.513,104.231 L247.513,147.947 L251.605,149.885 C254.475,151.036 258.352,152.183 263.234,153.331 C267.746,154.392 271.95,154.958 275.852,155.038 L275.855,155.044 C275.947,155.044 276.041,155.043 276.134,155.043 C276.356,155.046 276.581,155.054 276.801,155.054 C277.447,155.054 278.084,155.036 278.716,155.008 C288.371,154.735 299.581,152.465 308.189,136.616 C308.19,136.615 308.19,136.615 308.191,136.614 C308.58,135.897 308.967,135.161 309.345,134.387 L309.313,134.377 C309.365,134.267 309.426,134.163 309.476,134.052 C310.901,130.542 312.05,126.302 312.819,121.087 C315.659,101.844 308.14,92.327 303.934,86.438 Z" id="Path"></path>
            <path d="M381.232,86.438 C377.026,80.549 353.633,58.783 353.633,58.783 C348.041,53.712 343.89,48.769 340.913,44.052 C339.069,41.462 337.752,38.98 336.979,36.609 C336.853,36.223 336.736,35.829 336.625,35.431 C330.382,18.193 339.892,5.469 349.83,3.454 L349.828,3.476 C351.564,3.037 353.412,2.799 355.392,2.799 C360.129,2.799 364.329,4.091 367.99,6.675 C371.651,9.259 374.558,12.705 376.712,17.012 C378.866,21.319 380.552,25.7 381.773,30.148 C382.991,34.6 383.889,39.338 384.465,44.361 L385.757,44.361 L385.757,6.461 C380.158,2.154 371.83,0 360.777,0 C349.864,0 340.857,3.16 333.75,9.475 C326.643,15.794 323.09,24.91 323.09,36.825 C323.09,43.144 324.308,48.992 326.751,54.376 C329.19,59.76 331.882,64.067 334.826,67.297 C337.767,70.527 342.256,75.016 348.285,80.757 C360.2,91.955 368.276,100.536 372.513,106.491 C376.746,112.45 378.866,119.305 378.866,127.057 C378.866,134.668 376.998,140.806 373.267,145.47 C369.532,150.137 364.724,152.469 358.838,152.469 C353.956,152.469 349.433,150.746 345.271,147.301 C341.105,143.855 337.767,139.515 335.257,134.272 C332.743,129.033 330.697,123.865 329.119,118.767 C327.538,113.673 326.461,108.827 325.889,104.231 L324.812,104.231 L324.812,147.947 L328.904,149.885 C331.774,151.036 335.651,152.183 340.533,153.331 C345.045,154.392 349.249,154.958 353.151,155.038 L353.154,155.044 C353.246,155.044 353.34,155.043 353.433,155.043 C353.655,155.046 353.88,155.054 354.1,155.054 C354.746,155.054 355.383,155.036 356.015,155.008 C365.67,154.735 376.88,152.465 385.488,136.616 C385.489,136.615 385.489,136.615 385.49,136.614 C385.879,135.897 386.266,135.161 386.644,134.387 L386.612,134.377 C386.664,134.267 386.725,134.163 386.775,134.052 C388.2,130.542 389.349,126.302 390.118,121.087 C392.958,101.844 385.439,92.327 381.232,86.438 Z" id="Path"></path>
        </g>
    </g>
</svg>